<?xml version="1.0" encoding="UTF-8" standalone="no"?>
<!DOCTYPE svg PUBLIC "-//W3C//DTD SVG 1.1//EN" "http://www.w3.org/Graphics/SVG/1.1/DTD/svg11.dtd">
<svg width="100%" height="100%" viewBox="0 0 109 101" version="1.1" xmlns="http://www.w3.org/2000/svg" xmlns:xlink="http://www.w3.org/1999/xlink" xml:space="preserve" xmlns:serif="http://www.serif.com/" style="fill-rule:evenodd;clip-rule:evenodd;stroke-linejoin:round;stroke-miterlimit:2;">
    <g transform="matrix(1,0,0,1,-26,-57)">
        <g id="Camper">
            <g id="Camper1" serif:id="Camper">
                <g transform="matrix(0.136713,0,0,0.136713,22.7045,49.7253)">
                    <path d="M74.12,470.6L119.72,470.6C137.18,447.96 257.61,279.08 272.86,279.08L793.35,279.08C806.5,279.08 817.26,289.82 817.26,302.99L817.26,684.9C817.26,698.07 806.51,708.81 793.35,708.81L772.08,708.81C770.51,655.34 726.69,612.49 672.84,612.49C618.99,612.49 575.16,655.34 573.59,708.81L286.26,708.81C284.69,655.34 240.87,612.49 187.02,612.49C133.17,612.49 89.34,655.34 87.78,708.81L50.21,708.81C37.05,708.81 26.3,698.07 26.3,684.9L26.3,518.42C26.3,492.11 47.81,470.6 74.12,470.6ZM187.02,634.5C229.7,634.5 264.3,669.1 264.3,711.78C264.3,754.46 229.7,789.06 187.02,789.06C144.34,789.06 109.74,754.46 109.74,711.78C109.74,669.1 144.34,634.5 187.02,634.5ZM672.84,634.5C715.52,634.5 750.12,669.1 750.12,711.78C750.12,754.46 715.52,789.06 672.84,789.06C630.16,789.06 595.56,754.46 595.56,711.78C595.56,669.1 630.16,634.5 672.84,634.5ZM394.54,323.4L285.16,323.4L170.64,475.97L394.54,477.55L394.54,323.4ZM435.03,323.4L766.67,323.4L766.67,477.55L435.03,477.55L435.03,323.4Z" style="fill:rgb(72,130,134);"/>
                </g>
                <g transform="matrix(0.136713,0,0,0.136713,22.7045,49.7253)">
                    <path d="M307.57,115.98L661,115.98C664.48,86.71 685.31,66.1 730.29,57.6L730.29,115.98L760.65,115.98C802.88,115.98 802.88,179.82 760.65,179.82L721.56,179.82L721.56,205.88L820.37,205.88L820.37,257.26L267.62,257.26L267.62,205.88L352.3,205.88L352.3,179.82L307.57,179.82C265.35,179.82 265.35,115.98 307.57,115.98ZM693.32,205.88L693.32,179.82L380.55,179.82L380.55,205.88L693.32,205.88ZM187.02,634.5C229.7,634.5 264.3,669.1 264.3,711.78C264.3,754.46 229.7,789.06 187.02,789.06C144.34,789.06 109.74,754.46 109.74,711.78C109.74,669.1 144.34,634.5 187.02,634.5ZM672.84,634.5C715.52,634.5 750.12,669.1 750.12,711.78C750.12,754.46 715.52,789.06 672.84,789.06C630.16,789.06 595.56,754.46 595.56,711.78C595.56,669.1 630.16,634.5 672.84,634.5Z" style="fill:rgb(48,82,82);"/>
                </g>
            </g>
        </g>
    </g>
</svg>
