<?xml version="1.0" encoding="UTF-8" standalone="no"?>
<!DOCTYPE svg PUBLIC "-//W3C//DTD SVG 1.1//EN" "http://www.w3.org/Graphics/SVG/1.1/DTD/svg11.dtd">
<svg width="100%" height="100%" viewBox="0 0 99 101" version="1.1" xmlns="http://www.w3.org/2000/svg" xmlns:xlink="http://www.w3.org/1999/xlink" xml:space="preserve" xmlns:serif="http://www.serif.com/" style="fill-rule:evenodd;clip-rule:evenodd;stroke-linejoin:round;stroke-miterlimit:2;">
    <g transform="matrix(1,0,0,1,-166,-57)">
        <g id="Hiker">
            <path d="M227.486,98.278L218.367,98.278C218.068,98.259 217.771,98.202 217.486,98.108L216.537,97.702C216.375,97.653 216.226,97.572 216.096,97.464L208.842,92.278L208.842,108.21C211.859,109.905 219.791,115.871 220.13,116.108C220.282,116.226 220.419,116.363 220.537,116.515C220.753,116.694 220.947,116.899 221.113,117.125C221.328,117.36 221.51,117.622 221.655,117.905C221.803,118.196 221.917,118.503 221.994,118.82C222.091,119.141 222.159,119.47 222.198,119.803C222.289,119.963 222.357,120.134 222.401,120.312L222.401,133.871C222.397,135.126 221.925,136.335 221.079,137.261L222.198,137.261L227.486,135.939L227.486,135.59L230.971,135.59L230.971,135.067L234.91,134.074L241.316,124.447C241.639,123.98 242.172,123.701 242.74,123.702L263.079,123.702C264.009,123.702 264.774,124.467 264.774,125.397L264.774,155.905C264.774,156.835 264.009,157.6 263.079,157.6L168.164,157.6C167.347,157.611 166.636,157.017 166.503,156.21C166.335,155.426 166.77,154.628 167.52,154.346L189.554,145.532L188.639,145.532C185.907,145.02 184.066,142.373 184.537,139.634L187.927,121.803C188.343,119.568 188.548,117.298 188.537,115.024L188.537,113.532L178.333,113.532C175.544,113.532 173.249,111.237 173.249,108.447L173.249,94.583C173.257,93.237 173.793,91.946 174.74,90.99L176.639,89.091L176.639,88.108L174.944,88.108C174.014,88.108 173.249,87.343 173.249,86.414L173.249,84.719C173.249,81.929 175.544,79.634 178.333,79.634L188.503,79.634C188.873,79.648 189.229,79.779 189.52,80.007C190.469,78.71 191.981,77.942 193.588,77.939L199.011,77.939C202.419,77.93 205.783,78.708 208.842,80.21L209.283,80.414C210.281,80.924 211.243,81.502 212.164,82.142L220.672,88.108L232.571,88.108C235.36,88.108 237.655,90.404 237.655,93.193C237.655,95.983 235.36,98.278 232.571,98.278L230.971,98.278L230.971,98.269L227.486,98.269L227.486,98.278ZM208.842,137.261L213.554,137.261C212.708,136.335 212.236,135.126 212.232,133.871L212.232,122.956L203.283,116.685C202.739,116.293 202.278,115.797 201.927,115.227L199.147,115.227L194.537,141.329C194.315,142.453 193.717,143.47 192.842,144.21L201.418,140.82L208.198,137.43C208.4,137.335 208.619,137.278 208.842,137.261Z" style="fill:rgb(72,130,134);fill-rule:nonzero;"/>
            <g transform="matrix(1.0935,0,0,1.73953,-21.2692,-59.0603)">
                <path d="M230.858,80.392C230.858,80.1 230.481,79.862 230.015,79.862L228.329,79.862C227.864,79.862 227.486,80.1 227.486,80.392L227.486,111.874C227.486,112.167 227.864,112.404 228.329,112.404L230.015,112.404C230.481,112.404 230.858,112.167 230.858,111.874L230.858,80.392Z" style="fill:rgb(48,82,82);"/>
            </g>
            <g transform="matrix(3.38983,0,0,3.38983,161.384,52.5153)">
                <path d="M8.5,4C8.5,2.629 9.629,1.5 11,1.5C12.371,1.5 13.5,2.629 13.5,4C13.5,5.371 12.371,6.5 11,6.5C9.629,6.5 8.5,5.371 8.5,4Z" style="fill:rgb(48,82,82);fill-rule:nonzero;"/>
            </g>
        </g>
    </g>
</svg>
